<?xml version="1.0" encoding="UTF-8" standalone="no"?>
<svg
   xmlns:osb="http://www.openswatchbook.org/uri/2009/osb"
   xmlns:dc="http://purl.org/dc/elements/1.1/"
   xmlns:cc="http://creativecommons.org/ns#"
   xmlns:rdf="http://www.w3.org/1999/02/22-rdf-syntax-ns#"
   xmlns:svg="http://www.w3.org/2000/svg"
   xmlns="http://www.w3.org/2000/svg"
   id="svg8"
   version="1.1"
   viewBox="0 0 6.3499999 6.3500002"
   height="24"
   width="24">
  <title
     id="title4558">Email_Icon</title>
  <defs
     id="defs2">
    <linearGradient
       osb:paint="solid"
       id="linearGradient4562">
      <stop
         id="stop4560"
         offset="0"
         style="stop-color:#3d67b1;stop-opacity:1;" />
    </linearGradient>
  </defs>
  <metadata
     id="metadata5">
    <rdf:RDF>
      <cc:Work
         rdf:about="">
        <dc:format>image/svg+xml</dc:format>
        <dc:type
           rdf:resource="http://purl.org/dc/dcmitype/StillImage" />
        <dc:title>Email_Icon</dc:title>
      </cc:Work>
    </rdf:RDF>
  </metadata>
  <g
     transform="translate(0,-290.64998)"
     id="layer1">
    <path
       style="stroke-width:0.00725632;fill:url(#linearGradient4562)"
       d="m 3.122395,294.41896 c -0.854793,-0.42014 -2.44755899,-1.19802 -2.95767699,-1.44546 -0.08925,-0.0428 -0.161091,0.002 -0.161091,0.10086 v 2.87496 c 0,0.0987 0.07982,0.17923 0.17850599,0.17923 H 6.1657 c 0.09869,0 0.179231,-0.0798 0.179231,-0.17851 v -2.87206 c 0,-0.0987 -0.07184,-0.14368 -0.160365,-0.10014 -0.506491,0.24818 -2.081114,1.02315 -2.925025,1.44183 -0.05079,0.0254 -0.08853,0.0232 -0.137146,-7.9e-4 z m -2.27993699,-1.6646 c 0.76336599,0.3737 1.52673099,0.74813 2.29082199,1.11964 0.02903,0.0145 0.07474,0.0189 0.10304,0.005 1.021691,-0.50141 2.041931,-1.00644 3.062896,-1.50932 0.03701,-0.0181 0.05007,-0.0392 0.05007,-0.082 -0.0015,-0.14875 0,-0.41144 7.14e-4,-0.58704 0,-0.0987 -0.08055,-0.17923 -0.179231,-0.17923 H 0.17995701 C 0.081267,291.52142 0,291.60122 0,291.70065 c 0,0.17633 0.00130001,0.43973 0.00360001,0.59429 7.9399e-4,0.0247 0.02758,0.0602 0.05079999,0.0718 0.26195401,0.13134 0.525357,0.25832 0.788036,0.38749 z"
       id="path4586" />
  </g>
</svg>
