<?xml version="1.0" encoding="UTF-8" standalone="no"?>
<svg
   xmlns:osb="http://www.openswatchbook.org/uri/2009/osb"
   xmlns:dc="http://purl.org/dc/elements/1.1/"
   xmlns:cc="http://creativecommons.org/ns#"
   xmlns:rdf="http://www.w3.org/1999/02/22-rdf-syntax-ns#"
   xmlns:svg="http://www.w3.org/2000/svg"
   xmlns="http://www.w3.org/2000/svg"
   id="svg8"
   version="1.1"
   viewBox="0 0 6.3499999 6.3500002"
   height="24"
   width="24">
  <title
     id="title4558">Call_Icon</title>
  <defs
     id="defs2">
    <linearGradient
       osb:paint="solid"
       id="linearGradient4562">
      <stop
         id="stop4560"
         offset="0"
         style="stop-color:#3d67b1;stop-opacity:1;" />
    </linearGradient>
  </defs>
  <metadata
     id="metadata5">
    <rdf:RDF>
      <cc:Work
         rdf:about="">
        <dc:format>image/svg+xml</dc:format>
        <dc:type
           rdf:resource="http://purl.org/dc/dcmitype/StillImage" />
        <dc:title>Call_Icon</dc:title>
      </cc:Work>
    </rdf:RDF>
  </metadata>
  <g
     transform="translate(0,-290.64998)"
     id="layer1">
    <path
       style="fill:url(#linearGradient4562);fill-opacity:1;stroke-width:0.00725646"
       d="m 2.380286,292.76048 c -0.872953,0.50432 0.458608,3.00128 1.414285,2.44978 l 0.8860147,1.53402 c -0.40346,0.23293 -0.743788,0.37951 -1.2111037,0.11247 -1.297457,-0.74161 -2.72552905,-3.21388 -2.68489305,-4.68839 0.01379,-0.51231 0.31638305,-0.71332 0.71040805,-0.94117 0.169076,0.29316 0.715488,1.23941 0.885289,1.53329 z m 0.365726,-0.0413 c -0.09433,0.0545 -0.215517,0.0225 -0.270666,-0.0725 l -0.834494,-1.44622 c -0.05442,-0.0943 -0.0225,-0.21551 0.07257,-0.27066 l 0.439015,-0.25325 c 0.09434,-0.0545 0.215518,-0.0225 0.270667,0.0726 l 0.835219,1.44621 c 0.05442,0.0943 0.0225,0.21552 -0.07257,0.26994 z m 2.2814327,3.95114 c -0.09433,0.0545 -0.215517,0.0225 -0.270666,-0.0725 l -0.834493,-1.44621 c -0.05442,-0.0943 -0.0225,-0.21552 0.07257,-0.27067 l 0.439016,-0.25325 c 0.09433,-0.0544 0.215517,-0.0225 0.270666,0.0726 l 0.835219,1.44621 c 0.05442,0.0943 0.0225,0.21552 -0.07257,0.27066 z"
       id="path30" />
  </g>
</svg>
