<?xml version="1.0" encoding="UTF-8" standalone="no"?>
<svg
   xmlns:osb="http://www.openswatchbook.org/uri/2009/osb"
   xmlns:dc="http://purl.org/dc/elements/1.1/"
   xmlns:cc="http://creativecommons.org/ns#"
   xmlns:rdf="http://www.w3.org/1999/02/22-rdf-syntax-ns#"
   xmlns:svg="http://www.w3.org/2000/svg"
   xmlns="http://www.w3.org/2000/svg"
   id="svg8"
   version="1.1"
   viewBox="0 0 6.3499999 6.3500002"
   height="24"
   width="24">
  <title
     id="title4558">Website_Icon</title>
  <defs
     id="defs2">
    <linearGradient
       osb:paint="solid"
       id="linearGradient4562">
      <stop
         id="stop4560"
         offset="0"
         style="stop-color:#3d67b1;stop-opacity:1;" />
    </linearGradient>
  </defs>
  <metadata
     id="metadata5">
    <rdf:RDF>
      <cc:Work
         rdf:about="">
        <dc:format>image/svg+xml</dc:format>
        <dc:type
           rdf:resource="http://purl.org/dc/dcmitype/StillImage" />
        <dc:title>Website_Icon</dc:title>
      </cc:Work>
    </rdf:RDF>
  </metadata>
  <g
     transform="translate(0,-290.64998)"
     id="layer1">
    <path
       style="stroke-width:0.00725714;fill:url(#linearGradient4562)"
       d="m 6.01472,292.92981 c -0.38245,-1.20251 -1.51311,-2.08062 -2.83174,-2.08062 -1.33459,0 -2.46525,0.87376 -2.84552,2.08062 H 0 v 1.79034 h 0.33746 c 0.38027,1.20468 1.51093,2.08062 2.84117,2.08062 1.32515,0 2.45219,-0.87594 2.83391,-2.08062 H 6.35 v -1.79034 z M 4.91744,291.8797 c -0.12773,0.0515 -0.24819,0.0987 -0.35995,0.14297 -0.11612,-0.2032 -0.23006,-0.39769 -0.34399,-0.59436 0.25472,0.10668 0.48695,0.25472 0.70394,0.45139 z m -0.59726,1.46377 h 0.23005 l 0.11248,0.60379 0.13208,-0.60379 h 0.19667 l 0.13426,0.60379 0.10958,-0.60379 h 0.23005 l -0.2032,0.96302 H 5.02049 l -0.1299,-0.55009 -0.12482,0.55009 H 4.52628 Z m 0.10087,1.37668 c -0.029,0.13425 -0.0602,0.26851 -0.0871,0.40204 -0.009,0.0399 -0.0225,0.0537 -0.0646,0.0472 -0.29972,-0.0537 -0.59872,-0.10522 -0.91005,-0.15675 v -0.29246 z m -1.05954,-3.48633 c 0.43107,0.1611 0.64153,0.51162 0.83602,0.90932 -0.28593,0.0428 -0.5588,0.0806 -0.83602,0.11829 z m 0,1.38321 c 0.10958,-0.0109 0.2257,-0.016 0.33963,-0.0334 0.18579,-0.029 0.37302,-0.0646 0.5588,-0.098 0.0356,-0.009 0.0581,-0.0131 0.0718,0.0334 0.0399,0.13425 0.0718,0.27286 0.10087,0.41148 H 3.36146 Z m -0.37084,-1.37015 v 0.99713 c -0.2794,-0.002 -0.55227,-0.0472 -0.82224,-0.11176 0.14297,-0.41366 0.54502,-0.84981 0.82224,-0.88537 z m -1.05519,1.68293 c 0.0268,-0.13426 0.0537,-0.26561 0.0784,-0.39987 0.0109,-0.0472 0.0312,-0.0581 0.0784,-0.045 0.28594,0.0718 0.57477,0.10958 0.86941,0.12482 0.009,0 0.0181,0.004 0.029,0.007 v 0.31278 H 1.9355 Z m 0.0943,0.41366 -0.2032,0.96302 H 1.58492 l -0.1299,-0.54937 -0.12483,0.5501 H 1.08853 l -0.2032,-0.96303 h 0.23005 l 0.10959,0.6038 0.13425,-0.6038 h 0.19667 l 0.13426,0.6038 0.10958,-0.6038 h 0.23005 z m 0.10668,-1.91589 c -0.11393,0.19667 -0.22569,0.39116 -0.34181,0.59436 -0.11394,-0.045 -0.23005,-0.0893 -0.36431,-0.14079 0.21699,-0.19594 0.4514,-0.34616 0.70612,-0.45357 z m -0.97173,0.72934 c 0.17417,0.074 0.34181,0.14297 0.51598,0.21482 -0.058,0.1836 -0.10087,0.37084 -0.13208,0.5588 H 0.72205 c 0.10014,-0.28013 0.24601,-0.53703 0.44268,-0.77362 z m -0.44268,2.56323 h 0.82731 c 0.0312,0.18796 0.074,0.37519 0.13208,0.55662 -0.17417,0.074 -0.34181,0.14514 -0.51598,0.21699 -0.1974,-0.23949 -0.34327,-0.49639 -0.44341,-0.77361 z m 0.70829,1.05083 c 0.13426,-0.0537 0.25037,-0.098 0.36431,-0.14296 0.11612,0.20102 0.22788,0.39769 0.33964,0.59218 -0.25255,-0.10305 -0.4826,-0.25473 -0.70395,-0.44922 z m 1.56029,0.6321 c -0.31061,-0.0581 -0.65968,-0.46518 -0.81788,-0.87812 0.15385,-0.0624 0.68362,-0.13643 0.81788,-0.11176 z m 0,-1.37233 c -0.15168,0.016 -0.30408,0.029 -0.45357,0.0494 -0.1495,0.0247 -0.29972,0.0559 -0.44922,0.0871 -0.0377,0.007 -0.0559,0.004 -0.0689,-0.0377 -0.0399,-0.13426 -0.0719,-0.27287 -0.0987,-0.4093 h 1.07043 z m 0.18288,-1.27363 -0.12773,0.5501 H 2.8063 l -0.20465,-0.96375 h 0.23222 l 0.10959,0.60379 0.13208,-0.60379 h 0.19667 l 0.13425,0.60379 0.11176,-0.60379 H 3.74827 L 3.5429,294.30649 H 3.30341 Z m 0.18578,2.64596 v -1.01455 c 0.27722,0.0377 0.55009,0.0762 0.82441,0.11394 -0.13353,0.39116 -0.51163,0.85199 -0.82441,0.90061 z m 0.85417,-0.17853 c 0.11393,-0.19667 0.22352,-0.39116 0.34399,-0.59653 0.11176,0.045 0.23005,0.0893 0.35995,0.14078 -0.21699,0.19667 -0.44922,0.34399 -0.70394,0.45575 z m 0.97173,-0.73079 c -0.16982,-0.0718 -0.33964,-0.14297 -0.51598,-0.21481 0.0581,-0.18361 0.0987,-0.37084 0.13208,-0.5588 H 5.6286 c -0.10087,0.27722 -0.24674,0.53412 -0.44341,0.77361 z m -0.3839,-2.56395 c -0.0334,-0.18796 -0.074,-0.37302 -0.13208,-0.55662 0.17199,-0.0719 0.33963,-0.14297 0.51598,-0.21699 0.19667,0.23658 0.34181,0.49421 0.44268,0.77361 z"
       id="path4617" />
  </g>
</svg>
