<?xml version="1.0" encoding="UTF-8" standalone="no"?>
<svg
   xmlns:osb="http://www.openswatchbook.org/uri/2009/osb"
   xmlns:dc="http://purl.org/dc/elements/1.1/"
   xmlns:cc="http://creativecommons.org/ns#"
   xmlns:rdf="http://www.w3.org/1999/02/22-rdf-syntax-ns#"
   xmlns:svg="http://www.w3.org/2000/svg"
   xmlns="http://www.w3.org/2000/svg"
   id="svg8"
   version="1.1"
   viewBox="0 0 6.3499999 6.3500002"
   height="24"
   width="24">
  <title
     id="title4558">Whatsapp_Icon</title>
  <defs
     id="defs2">
    <linearGradient
       osb:paint="solid"
       id="linearGradient4562">
      <stop
         id="stop4560"
         offset="0"
         style="stop-color:#3d67b1;stop-opacity:1;" />
    </linearGradient>
  </defs>
  <metadata
     id="metadata5">
    <rdf:RDF>
      <cc:Work
         rdf:about="">
        <dc:format>image/svg+xml</dc:format>
        <dc:type
           rdf:resource="http://purl.org/dc/dcmitype/StillImage" />
        <dc:title>Whatsapp_Icon</dc:title>
      </cc:Work>
    </rdf:RDF>
  </metadata>
  <g
     transform="translate(0,-290.64998)"
     id="layer1">
    <path
       style="stroke-width:0.00725714;fill:url(#linearGradient4562)"
       d="m 3.232335,290.64998 c -1.70833,0 -3.093,1.38539 -3.093,3.09299 0,0.5842 0.16256,1.13139 0.44341,1.59803 l -0.55807,1.65898 1.71269,-0.54864 c 0.44341,0.24457 0.95213,0.38535 1.49497,0.38535 1.70833,0 3.09299,-1.38538 3.09299,-3.09299 0,-1.70761 -1.38466,-3.09372 -3.09299,-3.09372 z m 1.51529,4.16487 c -0.0624,0.17708 -0.31133,0.3244 -0.51018,0.36649 -0.13571,0.029 -0.31351,0.0522 -0.9115,-0.19522 -0.7649,-0.31641 -1.25693,-1.09365 -1.29467,-1.14372 -0.037,-0.0508 -0.30915,-0.41148 -0.30915,-0.7845 0,-0.37302 0.19013,-0.55517 0.26633,-0.63282 0.0624,-0.0646 0.16692,-0.0929 0.26561,-0.0929 0.0327,0 0.061,0.001 0.0871,0.003 0.0762,0.003 0.11466,0.008 0.16546,0.12845 0.0624,0.15095 0.21554,0.52397 0.23368,0.56243 0.0189,0.0385 0.037,0.09 0.0109,0.14079 -0.0247,0.0523 -0.0457,0.0747 -0.0842,0.11974 -0.0385,0.0443 -0.0748,0.0777 -0.11322,0.12482 -0.0356,0.0414 -0.0747,0.0856 -0.0305,0.16256 0.0443,0.0747 0.1974,0.3244 0.42237,0.52397 0.29029,0.25835 0.52614,0.34108 0.61033,0.37664 0.0624,0.0261 0.13788,0.0196 0.1836,-0.029 0.0581,-0.0631 0.1299,-0.16692 0.2032,-0.26924 0.0523,-0.0733 0.11757,-0.0827 0.18651,-0.0566 0.0704,0.024 0.44196,0.20828 0.51889,0.24602 0.0762,0.0385 0.127,0.0566 0.14514,0.0885 0.0174,0.0319 0.0174,0.18361 -0.0457,0.36068 z"
       id="path4675" />
  </g>
</svg>
